PathFileType	4	(X/Y/Z)	3_coords_data.trc
DataRate	CameraRate	NumFrames	NumMarkers	Units	OrigDataRate	OrigDataStartFrame	OrigNumFrames
30.0	30.0	6	21	m	30.0	55	65
Frame#	Time	THUMB_TIP	THUMB_IP	THUMB_MCP	THUMB_CMC	INDEX_TIP	INDEX_DIP	INDEX_PIP	INDEX_MCP	MIDDLE_TIP	MIDDLE_DIP	MIDDLE_PIP	MIDDLE_MCP	RING_TIP	RING_DIP	RING_PIP	RING_MCP	PINKY_TIP	PINKY_DIP	PINKY_PIP	PINKY_MCP	WRIST
X1	Y1	Z1	X2	Y2	Z2	X3	Y3	Z3	X4	Y4	Z4	X5	Y5	Z5	X6	Y6	Z6	X7	Y7	Z7	X8	Y8	Z8	X9	Y9	Z9	X10	Y10	Z10	X11	Y11	Z11	X12	Y12	Z12	X13	Y13	Z13	X14	Y14	Z14	X15	Y15	Z15	X16	Y16	Z16	X17	Y17	Z17	X18	Y18	Z18	X19	Y19	Z19	X20	Y20	Z20	X21	Y21	Z21
54	1.8	-0.03350249862670898	-0.028621599197387694	0.9423880004882812	-0.05171329879760742	-0.030850900650024413	0.9637589721679688	-0.06832779693603516	-0.028187400817871095	0.99089501953125	-0.0860343017578125	-0.009367019653320312	1.0135900268554687	-0.049732898712158205	-0.001157119989395141	0.8954650268554688	-0.06787969970703125	-0.008751890182495118	0.9048909912109375	-0.0843218002319336	-0.015448599815368653	0.9203400268554688	-0.09582270050048829	-0.02088949966430664	0.9590139770507813	-0.0531505012512207	0.021309200286865233	0.8891119995117187	-0.07170089721679687	0.014571900367736817	0.9003920288085937	-0.09139830017089844	0.0068140501976013184	0.9195599975585937	-0.10584600067138672	-0.0006349030137062071	0.9575989990234375	-0.060863399505615236	0.039610401153564456	0.9121069946289062	-0.0800322036743164	0.03511230087280273	0.916864990234375	-0.10122000122070313	0.027423200607299806	0.929219970703125	-0.11176599884033203	0.018030899047851563	0.9652680053710937	-0.0701365966796875	0.05320800018310547	0.932989013671875	-0.0873230972290039	0.051255298614501954	0.9383870239257812	-0.10216500091552734	0.04579690170288086	0.9486959838867187	-0.11048600006103515	0.03574300003051758	0.976031982421875	-0.11739700317382812	0.001765869975090026	1.0400799560546874
55	1.8333333333333333	-0.03405649948120117	-0.028652200698852538	0.9420989990234375	-0.052217201232910154	-0.030931800842285157	0.9635139770507812	-0.06873709869384766	-0.028310800552368166	0.990656005859375	-0.08649250030517579	-0.009540800094604493	1.0136900024414062	-0.04998500061035156	-0.000863717973232269	0.8950150146484375	-0.06807479858398438	-0.008383709907531739	0.904697021484375	-0.08436209869384766	-0.015074799537658692	0.9203380126953125	-0.09610050201416015	-0.020709800720214843	0.9590159912109375	-0.05377870178222656	0.021386499404907226	0.8884169921875	-0.07209490203857422	0.0147632999420166	0.9001810302734375	-0.0916365966796875	0.007031099796295166	0.9199409790039063	-0.10641699981689454	-0.000411666005849838	0.9572589721679687	-0.061602901458740235	0.03978720092773438	0.9109110107421875	-0.08074019622802735	0.035211101531982425	0.9163690185546876	-0.10173200225830079	0.027472000122070312	0.9292379760742188	-0.112125	0.0180939998626709	0.965926025390625	-0.07113369750976563	0.05362620162963867	0.9317360229492188	-0.0882489013671875	0.05138470077514649	0.93785302734375	-0.10283899688720703	0.0458297004699707	0.9486220092773437	-0.11055500030517579	0.03594549942016602	0.9750159912109375	-0.11759100341796876	0.00182203996181488	1.03997998046875
56	1.8666666666666667	-0.03443389892578125	-0.02866819953918457	0.9417899780273438	-0.05246239852905273	-0.03088990020751953	0.9632340087890625	-0.0689561996459961	-0.028384099960327147	0.9903820190429687	-0.08656919860839844	-0.00948348045349121	1.013239990234375	-0.05027119827270508	-0.00059996497631073	0.89452099609375	-0.06825640106201172	-0.008128350257873534	0.9045770263671875	-0.08448429870605469	-0.014869000434875488	0.9201729736328125	-0.09638510131835938	-0.02071339988708496	0.9587329711914062	-0.05389279937744141	0.021684499740600587	0.8881519775390625	-0.07220719909667969	0.014982500076293946	0.9001950073242188	-0.09165440368652343	0.007203579902648926	0.9199089965820313	-0.10645200347900391	-0.00038815900683403004	0.9580570068359375	-0.06204880142211914	0.03997140121459961	0.910301025390625	-0.08101119995117187	0.03529880142211914	0.91602099609375	-0.10191300201416016	0.02756380081176758	0.9291939697265625	-0.11216600036621094	0.018158199310302735	0.9653829956054687	-0.07182720184326172	0.05389730072021484	0.9309439697265625	-0.08877290344238281	0.051512401580810545	0.937385986328125	-0.10328099822998046	0.0459010009765625	0.9483829956054688	-0.11113800048828125	0.035978099822998044	0.9761929931640625	-0.11773600006103516	0.0017006000280380248	1.0399200439453125
57	1.9	-0.03451269912719727	-0.02863870048522949	0.9415170288085938	-0.052589401245117184	-0.03085569953918457	0.9629970092773438	-0.06901950073242187	-0.028434499740600586	0.9901060180664063	-0.08673699951171875	-0.009623240470886231	1.0130599975585937	-0.05026409912109375	-0.00036066699028015106	0.8941669921875	-0.06820909881591797	-0.007936049938201904	0.9042589721679688	-0.0844186019897461	-0.014656200408935546	0.9199140014648437	-0.0963302001953125	-0.020826000213623047	0.9584340209960938	-0.05363570022583008	0.02194470024108887	0.8879110107421875	-0.07188480377197265	0.015171799659729004	0.899989013671875	-0.09153469848632813	0.007448130130767823	0.9194299926757813	-0.10646499633789062	-0.00042341700196266103	0.9567100219726562	-0.061880298614501957	0.04007619857788086	0.9099559936523437	-0.08097509765625	0.03539479827880859	0.9158980102539063	-0.10176899719238282	0.02764699935913086	0.9292410278320312	-0.11243499755859375	0.01811840057373047	0.9654190063476562	-0.07202290344238281	0.054052799224853516	0.9305670166015625	-0.08899980163574218	0.05156940078735352	0.9371669921875	-0.1028550033569336	0.04600579833984375	0.9483189697265625	-0.11112899780273437	0.03581150054931641	0.9755540161132813	-0.11795099639892578	0.001631940007209777	1.0396400146484375
58	1.9333333333333333	-0.03469340133666992	-0.028882499694824218	0.9410709838867187	-0.05266550064086914	-0.03101609992980957	0.962593017578125	-0.06908679962158203	-0.02859519958496094	0.9897260131835938	-0.08678019714355469	-0.009758689880371093	1.01277001953125	-0.050495899200439454	-0.00045515999197959906	0.8936890258789062	-0.06844670104980469	-0.007947279930114745	0.9039110107421875	-0.08468900299072266	-0.014696499824523927	0.9197570190429688	-0.09640609741210937	-0.020936399459838866	0.9582579956054688	-0.05376409912109375	0.021856199264526366	0.8875570068359375	-0.07196399688720703	0.015134300231933594	0.8997039794921875	-0.09155870056152343	0.007431839942932129	0.918927978515625	-0.10645800018310547	-0.000542580008506774	0.9570079956054688	-0.06195270156860352	0.040029598236083985	0.90964501953125	-0.08096029663085938	0.035410900115966794	0.9155399780273438	-0.10193399810791015	0.027624099731445313	0.9288709716796875	-0.11204499816894531	0.018043699264526366	0.964177978515625	-0.07192169952392578	0.05398849868774414	0.9302760009765625	-0.08892459869384765	0.05157109832763672	0.9369539794921875	-0.10315599822998046	0.04590650177001953	0.947989990234375	-0.11112999725341798	0.03571739959716797	0.975218017578125	-0.11792600250244141	0.001429489970207214	1.03931005859375
59	1.9666666666666666	-0.03510309982299804	-0.02912019920349121	0.9405419921875	-0.0528734016418457	-0.03117099952697754	0.9621500244140625	-0.06928040313720703	-0.02875189971923828	0.989427001953125	-0.0868395004272461	-0.009890789985656739	1.01247998046875	-0.05075579833984375	-0.000583392024040222	0.8933699951171875	-0.06870709991455078	-0.007969339847564698	0.903614990234375	-0.08495339965820313	-0.014810299873352051	0.9194219970703125	-0.09658110046386718	-0.0209960994720459	0.9577630004882812	-0.05377000045776367	0.02182069969177246	0.8873820190429688	-0.07203279876708985	0.015129599571228027	0.8994959716796875	-0.09172109985351562	0.0074229598045349125	0.9184439697265625	-0.10656800079345703	-0.00060843402147293	0.9559550170898438	-0.06202700042724609	0.03987799835205078	0.909531982421875	-0.08095010375976562	0.03533399963378906	0.9153460083007813	-0.10185900115966796	0.027615200042724608	0.9285	-0.11247899627685547	0.01793079948425293	0.964905029296875	-0.072131103515625	0.053861198425292967	0.92989501953125	-0.08907830047607422	0.05143479919433594	0.9365570068359375	-0.10333999633789062	0.045791500091552736	0.9475670166015625	-0.11091100311279296	0.03564519882202148	0.9749619750976563	-0.11787899780273438	0.0013101300001144409	1.038969970703125
